<svg width="209" height="136" viewBox="0 0 209 136" fill="none" xmlns="http://www.w3.org/2000/svg">
<path d="M207.636 0.609375C207.679 0.725326 207.73 0.901312 207.776 1.15527C207.854 1.58032 207.911 2.14628 207.946 2.8418C208.016 4.23137 207.996 6.08863 207.9 8.26562C207.71 12.617 207.223 18.2057 206.578 23.8008C205.934 29.3958 205.134 34.9875 204.319 39.3447C203.912 41.5245 203.502 43.3866 203.108 44.7822C202.912 45.4805 202.722 46.0521 202.542 46.4844C202.449 46.7083 202.364 46.8797 202.291 47.0068C200.549 46.1863 198.442 44.6258 196.367 42.8916C194.159 41.0461 192.035 39.0464 190.484 37.6211L190.061 37.2314L189.733 37.7061C182.163 48.7065 174.189 59.5034 166.174 70.2842C158.16 81.063 150.102 91.8272 142.371 102.751C137.836 109.161 132.514 116.633 127.013 122.203L126.476 122.74C122.012 127.23 116.572 130.624 110.579 132.662C99.9149 136.174 90.8709 134.599 82.3877 131.077C78.1384 129.313 74.0332 127.062 69.9316 124.713C65.8456 122.373 61.7538 119.931 57.5615 117.805C54.9625 116.172 51.8118 114.556 49.0449 113.083C51.4331 110.676 55.1976 107.449 59.2334 104.661C63.5606 101.672 68.1177 99.2458 71.5977 98.8057C77.1472 98.1036 81.3496 101.442 85.8027 104.956C90.1887 108.417 94.8133 112.041 101.026 111.202L101.025 111.201C106.587 110.457 109.346 107.784 112.963 104.024C117.89 98.9079 122.311 93.1171 126.354 87.332C142.05 64.8736 159.554 43.754 175.748 21.6611L176.044 21.2578L175.642 20.9619C171.026 17.5691 168.496 15.6268 164.472 11.8584C170.916 9.88107 177.513 8.08835 184.151 6.2959C191.041 4.43557 197.976 2.57271 204.816 0.50293L207.636 0.609375Z" fill="#DFAE21" stroke="#FFB20B"/>
<path d="M73.1035 61.3242C81.9524 60.5172 89.151 63.3221 95.6748 67.8135C102.152 72.2728 107.923 78.3608 113.985 84.2266C110.866 91.7396 107.959 95.8401 105.161 97.7822C102.382 99.7108 99.6476 99.5518 96.7148 98.3418C93.7349 97.1122 90.6562 94.8447 87.2119 92.625C83.802 90.4274 80.0758 88.3103 75.917 87.5273C72.9658 86.9717 69.5046 87.8449 65.8926 89.5078C62.2682 91.1765 58.4219 93.6731 54.6709 96.4609C47.1815 102.027 39.987 108.82 35.6328 112.614C32.1482 115.437 25.4451 120.769 18.5293 125.133C15.0706 127.315 11.5738 129.247 8.41016 130.502C5.36223 131.711 2.70377 132.257 0.704102 131.879C0.679758 131.812 0.656866 131.749 0.635742 131.692C0.584598 131.555 0.549318 131.454 0.526367 131.36C0.488126 131.204 0.482017 131.059 0.576172 130.829L0.575195 130.828C0.934196 129.962 1.97743 128.449 3.60547 126.409C5.21983 124.386 7.37046 121.893 9.89453 119.086C14.9419 113.472 21.4685 106.619 28.1582 99.7881C41.5471 86.117 55.5502 72.5749 59.6367 69.2422C63.924 65.7465 67.9911 63.4377 73.1035 61.3242Z" fill="#DFAE21" stroke="#FFB20B"/>
<path d="M188.837 60.0488C189.14 61.6242 189.125 62.9294 189.004 64.2441C188.898 65.3954 188.697 66.6592 188.582 68.0625L188.538 68.6729C186.954 94.9776 167.211 116.05 142.118 123.316L141.752 122.633C142.429 121.199 144.106 118.68 145.914 116.108C146.863 114.759 147.83 113.418 148.69 112.232L150.823 109.286C162.571 92.7427 175.168 74.9278 188.536 59.7178L188.837 60.0488Z" fill="#DFAE21" stroke="#FFB20B"/>
</svg>
