<svg width="790" height="308" viewBox="0 0 790 308" fill="none" xmlns="http://www.w3.org/2000/svg">
<path d="M341.755 43.0034C341.826 43.1944 341.91 43.4843 341.986 43.9026C342.114 44.6026 342.208 45.5348 342.265 46.6804C342.381 48.9691 342.348 52.0281 342.19 55.6137C341.877 62.7807 341.075 71.9855 340.014 81.201C338.954 90.4163 337.637 99.6261 336.296 106.803C335.626 110.393 334.951 113.46 334.302 115.758C333.98 116.909 333.667 117.85 333.371 118.562C333.218 118.931 333.078 119.213 332.958 119.423C330.09 118.071 326.622 115.501 323.207 112.645C319.573 109.605 316.077 106.311 313.524 103.964L312.828 103.322L312.288 104.104C299.828 122.222 286.704 140.005 273.511 157.762C260.321 175.515 247.058 193.244 234.333 211.236C226.869 221.794 218.109 234.101 209.055 243.275L208.171 244.159C200.824 251.554 191.87 257.145 182.006 260.501C164.453 266.286 149.567 263.692 135.605 257.891C128.611 254.985 121.854 251.278 115.103 247.409C108.377 243.555 101.643 239.533 94.7424 236.031C90.4646 233.341 85.2787 230.68 80.7246 228.254C84.6554 224.289 90.8515 218.974 97.4942 214.382C104.616 209.459 112.117 205.463 117.845 204.738C126.979 203.582 133.896 209.08 141.226 214.868C148.445 220.568 156.056 226.537 166.282 225.156L166.28 225.154C175.435 223.928 179.976 219.526 185.93 213.333C194.039 204.906 201.316 195.369 207.97 185.84C233.805 148.85 262.615 114.065 289.27 77.6768L289.757 77.0125L289.095 76.5252C281.497 70.937 277.333 67.738 270.71 61.5312C281.316 58.2744 292.175 55.3217 303.1 52.3695C314.441 49.3054 325.855 46.2372 337.114 42.8281L341.755 43.0034Z" fill="#DFAE21" stroke="#FFB20B"/>
<path d="M120.323 143.005C134.888 141.676 146.736 146.295 157.474 153.693C168.135 161.038 177.634 171.065 187.612 180.726C182.478 193.101 177.693 199.854 173.088 203.053C168.514 206.23 164.013 205.968 159.186 203.975C154.281 201.95 149.214 198.215 143.545 194.559C137.932 190.939 131.799 187.452 124.954 186.163C120.097 185.248 114.4 186.686 108.455 189.425C102.489 192.173 96.1584 196.285 89.9845 200.877C77.6575 210.044 65.8158 221.233 58.6491 227.482C52.9137 232.132 41.8808 240.914 30.4979 248.101C24.8051 251.695 19.0496 254.877 13.8425 256.944C8.82577 258.936 4.45012 259.835 1.1588 259.212C1.11874 259.102 1.08106 258.998 1.04629 258.904C0.962109 258.679 0.904041 258.512 0.866265 258.358C0.803323 258.101 0.793268 257.862 0.948241 257.483L0.946633 257.481C1.53752 256.055 3.25462 253.563 5.93426 250.203C8.59139 246.871 12.1312 242.765 16.2856 238.142C24.5933 228.895 35.3356 217.608 46.3464 206.357C68.3836 183.84 91.4318 161.535 98.1579 156.046C105.215 150.288 111.909 146.486 120.323 143.005Z" fill="#DFAE21" stroke="#FFB20B"/>
<path d="M310.813 140.904C311.312 143.498 311.287 145.648 311.088 147.813C310.913 149.71 310.583 151.791 310.393 154.103L310.321 155.108C307.714 198.433 275.218 233.141 233.917 245.109L233.314 243.984C234.429 241.622 237.189 237.473 240.165 233.237C241.727 231.015 243.318 228.806 244.734 226.853L248.245 222C267.581 194.752 288.315 165.41 310.318 140.358L310.813 140.904Z" fill="#DFAE21" stroke="#FFB20B"/>
<path d="M425.552 47.6L429.36 77.28C430.816 88.144 432.608 89.6 438.208 92.4V109.648H432.496C426 106.288 424.544 100.352 422.64 89.712L417.488 104.496C412.336 106.512 407.296 107.632 402.928 107.632C393.856 107.632 388.032 101.92 388.032 92.4C388.032 84 392.4 74.032 406.4 66.864L417.936 60.704L423.536 47.6H425.552ZM422.528 34.944L413.792 43.792L405.952 35.952L398.112 43.792L389.264 34.832V33.6L398.112 24.752L405.952 32.592L413.792 24.752L422.528 33.488C422.64 33.6 422.64 34.944 422.528 34.944ZM419.84 73.136L390.944 84.112V84.224C393.52 88.368 398.784 90.608 406.176 90.608C411.328 90.608 417.264 89.824 422.528 88.48L419.84 73.136ZM537.389 25.984L530.781 40.768L483.069 52.416L506.925 80.416C512.301 86.8 517.005 90.16 521.597 92.4V109.648H515.885C512.189 107.856 509.053 104.384 504.797 99.12L503.789 97.776L500.429 106.96H500.317C490.349 111.664 474.221 114.688 459.213 114.688C448.797 114.688 438.941 113.232 432.333 109.648V92.4H438.157C444.093 95.424 454.509 96.768 465.709 96.768C474.333 96.768 483.293 95.984 491.021 94.528H491.133C493.709 94.08 496.733 93.408 499.869 92.624L477.021 62.72L487.661 37.968L536.269 24.416L537.389 25.984ZM578.73 74.816L579.066 81.2C579.402 87.584 583.658 90.272 588.138 92.4V109.648H582.426C577.834 107.296 573.354 103.376 573.13 95.088L568.762 106.96C559.466 111.328 547.482 113.792 536.506 113.792C528.554 113.792 521.162 112.448 515.898 109.648V92.4H521.61C526.202 94.752 534.154 96.096 542.89 96.096C553.194 96.096 563.722 94.304 573.466 90.944C573.466 90.272 573.69 89.488 573.802 88.592L576.602 74.816H578.73ZM587.578 131.152L578.842 140L571.002 132.16L563.162 140L554.314 131.04V129.808L563.162 120.96L571.002 128.8L578.842 120.96L587.578 129.696C587.69 129.808 587.69 131.152 587.578 131.152ZM645.23 74.816L645.566 81.2C645.902 87.584 650.158 90.272 654.638 92.4V109.648H648.926C644.334 107.296 639.854 103.376 639.63 95.088L635.262 106.96C625.966 111.328 613.982 113.792 603.006 113.792C595.054 113.792 587.662 112.448 582.398 109.648V92.4H588.11C592.702 94.752 600.654 96.096 609.39 96.096C619.694 96.096 630.222 94.304 639.966 90.944C639.966 90.272 640.19 89.488 640.302 88.592L643.102 74.816H645.23ZM647.246 132.16L637.502 141.904L627.646 132.048V130.592L637.502 120.736L647.246 130.48C647.358 130.592 647.358 132.048 647.246 132.16ZM721.026 91.952L728.306 79.968L730.994 81.424L726.066 90.384C730.546 92.624 736.818 94.08 741.746 94.08C745.33 94.08 749.25 93.408 752.498 91.504L756.53 77.504L759.442 78.288L756.754 89.04L780.162 94.304C777.138 88.704 773.89 85.232 769.186 80.64L775.234 65.184H777.25C784.754 76.048 785.538 81.648 781.618 94.64L776.802 110.544L749.586 103.936C747.57 109.424 741.522 112 735.138 112C727.858 112 722.258 108.752 718.338 104.272L716.882 106.96H716.77C706.802 111.664 690.674 114.688 675.666 114.688C665.25 114.688 655.394 113.232 648.786 109.648V92.4H654.61C660.546 95.424 670.962 96.768 682.162 96.768C690.786 96.768 699.746 95.984 707.474 94.528H707.586L721.026 91.952Z" fill="#DFAE21"/>
<path d="M418.72 263.784C413.269 263.784 408.341 262.851 403.936 260.984C399.605 259.117 396.171 256.429 393.632 252.92C391.093 249.411 389.787 245.267 389.712 240.488H406.512C406.736 243.699 407.856 246.237 409.872 248.104C411.963 249.971 414.8 250.904 418.384 250.904C422.043 250.904 424.917 250.045 427.008 248.328C429.099 246.536 430.144 244.221 430.144 241.384C430.144 239.069 429.435 237.165 428.016 235.672C426.597 234.179 424.805 233.021 422.64 232.2C420.549 231.304 417.637 230.333 413.904 229.288C408.827 227.795 404.683 226.339 401.472 224.92C398.336 223.427 395.611 221.224 393.296 218.312C391.056 215.325 389.936 211.368 389.936 206.44C389.936 201.811 391.093 197.779 393.408 194.344C395.723 190.909 398.971 188.296 403.152 186.504C407.333 184.637 412.112 183.704 417.488 183.704C425.552 183.704 432.085 185.683 437.088 189.64C442.165 193.523 444.965 198.973 445.488 205.992H428.24C428.091 203.304 426.933 201.101 424.768 199.384C422.677 197.592 419.877 196.696 416.368 196.696C413.307 196.696 410.843 197.48 408.976 199.048C407.184 200.616 406.288 202.893 406.288 205.88C406.288 207.971 406.96 209.725 408.304 211.144C409.723 212.488 411.44 213.608 413.456 214.504C415.547 215.325 418.459 216.296 422.192 217.416C427.269 218.909 431.413 220.403 434.624 221.896C437.835 223.389 440.597 225.629 442.912 228.616C445.227 231.603 446.384 235.523 446.384 240.376C446.384 244.557 445.301 248.44 443.136 252.024C440.971 255.608 437.797 258.483 433.616 260.648C429.435 262.739 424.469 263.784 418.72 263.784ZM455.946 231.752C455.946 225.48 457.178 219.917 459.642 215.064C462.181 210.211 465.578 206.477 469.834 203.864C474.165 201.251 478.981 199.944 484.282 199.944C488.911 199.944 492.943 200.877 496.378 202.744C499.887 204.611 502.687 206.963 504.778 209.8V200.952H520.57V263H504.778V253.928C502.762 256.84 499.962 259.267 496.378 261.208C492.869 263.075 488.799 264.008 484.17 264.008C478.943 264.008 474.165 262.664 469.834 259.976C465.578 257.288 462.181 253.517 459.642 248.664C457.178 243.736 455.946 238.099 455.946 231.752ZM504.778 231.976C504.778 228.168 504.031 224.92 502.538 222.232C501.045 219.469 499.029 217.379 496.49 215.96C493.951 214.467 491.226 213.72 488.314 213.72C485.402 213.72 482.714 214.429 480.25 215.848C477.786 217.267 475.77 219.357 474.202 222.12C472.709 224.808 471.962 228.019 471.962 231.752C471.962 235.485 472.709 238.771 474.202 241.608C475.77 244.371 477.786 246.499 480.25 247.992C482.789 249.485 485.477 250.232 488.314 250.232C491.226 250.232 493.951 249.523 496.49 248.104C499.029 246.611 501.045 244.52 502.538 241.832C504.031 239.069 504.778 235.784 504.778 231.976ZM551.564 210.024C553.58 207.037 556.343 204.611 559.852 202.744C563.436 200.877 567.506 199.944 572.06 199.944C577.362 199.944 582.14 201.251 586.396 203.864C590.727 206.477 594.124 210.211 596.588 215.064C599.127 219.843 600.396 225.405 600.396 231.752C600.396 238.099 599.127 243.736 596.588 248.664C594.124 253.517 590.727 257.288 586.396 259.976C582.14 262.664 577.362 264.008 572.06 264.008C567.431 264.008 563.362 263.112 559.852 261.32C556.418 259.453 553.655 257.064 551.564 254.152V263H535.884V180.12H551.564V210.024ZM584.38 231.752C584.38 228.019 583.596 224.808 582.028 222.12C580.535 219.357 578.519 217.267 575.98 215.848C573.516 214.429 570.828 213.72 567.916 213.72C565.079 213.72 562.391 214.467 559.852 215.96C557.388 217.379 555.372 219.469 553.804 222.232C552.311 224.995 551.564 228.243 551.564 231.976C551.564 235.709 552.311 238.957 553.804 241.72C555.372 244.483 557.388 246.611 559.852 248.104C562.391 249.523 565.079 250.232 567.916 250.232C570.828 250.232 573.516 249.485 575.98 247.992C578.519 246.499 580.535 244.371 582.028 241.608C583.596 238.845 584.38 235.56 584.38 231.752ZM619.743 193.56C616.98 193.56 614.665 192.701 612.799 190.984C611.007 189.192 610.111 186.989 610.111 184.376C610.111 181.763 611.007 179.597 612.799 177.88C614.665 176.088 616.98 175.192 619.743 175.192C622.505 175.192 624.783 176.088 626.575 177.88C628.441 179.597 629.375 181.763 629.375 184.376C629.375 186.989 628.441 189.192 626.575 190.984C624.783 192.701 622.505 193.56 619.743 193.56ZM627.471 200.952V263H611.791V200.952H627.471ZM679.698 263L658.642 236.568V263H642.962V180.12H658.642V227.272L679.474 200.952H699.858L672.53 232.088L700.082 263H679.698ZM704.337 231.752C704.337 225.48 705.569 219.917 708.033 215.064C710.571 210.211 713.969 206.477 718.225 203.864C722.555 201.251 727.371 199.944 732.673 199.944C737.302 199.944 741.334 200.877 744.769 202.744C748.278 204.611 751.078 206.963 753.169 209.8V200.952H768.961V263H753.169V253.928C751.153 256.84 748.353 259.267 744.769 261.208C741.259 263.075 737.19 264.008 732.561 264.008C727.334 264.008 722.555 262.664 718.225 259.976C713.969 257.288 710.571 253.517 708.033 248.664C705.569 243.736 704.337 238.099 704.337 231.752ZM753.169 231.976C753.169 228.168 752.422 224.92 750.929 222.232C749.435 219.469 747.419 217.379 744.881 215.96C742.342 214.467 739.617 213.72 736.705 213.72C733.793 213.72 731.105 214.429 728.641 215.848C726.177 217.267 724.161 219.357 722.593 222.12C721.099 224.808 720.353 228.019 720.353 231.752C720.353 235.485 721.099 238.771 722.593 241.608C724.161 244.371 726.177 246.499 728.641 247.992C731.179 249.485 733.867 250.232 736.705 250.232C739.617 250.232 742.342 249.523 744.881 248.104C747.419 246.611 749.435 244.52 750.929 241.832C752.422 239.069 753.169 235.784 753.169 231.976Z" fill="#1D1E22"/>
</svg>
